<svg xmlns="http://www.w3.org/2000/svg" version="1.1" xmlns:xlink="http://www.w3.org/1999/xlink" xmlns:svgjs="http://svgjs.com/svgjs" height="114.8867950439453" width="323.39800415039065"><defs id="SvgjsDefs1184"></defs><g id="SvgjsG1185" rel="mainfill" name="main_text" xmlns:name="main_text" transform="translate(114.08801025748254,-185.76160430908203)" fill="#ffffff"><path d="M22.31 240L22.31 223.06C22.31 218.02 18.14 213.92 13.14 213.92L9.54 213.92C4.54 213.92 0.41 218.02 0.41 223.06L0.41 240L7.16 240L7.16 233.98L15.53 233.98L15.53 240ZM9.54 220.62L13.14 220.62C14.49 220.62 15.53 221.71 15.53 223.06L15.53 227.14L7.16 227.14L7.16 223.06C7.16 221.71 8.23 220.62 9.54 220.62ZM45.57 239.98L45.57 227.08C45.57 222.24 40.41 221.02 37.42 224.63L34.84 227.70L32.26 224.63C29.26 221.02 24.12 222.24 24.10 227.08L24.10 239.98L30.51 239.98L30.51 230.80L33.71 234.47C34.54 235.41 35.11 235.39 35.97 234.47L39.29 230.80L39.29 239.98ZM55.78 222.79C51.01 222.79 47.07 226.73 47.07 231.57C47.07 236.34 51.01 240.30 55.78 240.30C60.62 240.30 64.58 236.34 64.58 231.57C64.58 226.73 60.62 222.79 55.78 222.79ZM55.78 233.99C54.52 233.99 53.37 232.84 53.37 231.57C53.37 230.23 54.52 229.15 55.78 229.15C57.12 229.15 58.23 230.23 58.23 231.57C58.23 232.84 57.12 233.99 55.78 233.99ZM71.59 239.98L71.59 234.42L75.80 234.42L75.80 239.98L81.87 239.98L81.87 223.00L75.80 223.00L75.80 228.76L71.59 228.76L71.59 223.00L65.57 223.00L65.57 239.98ZM112.51 240L112.51 223.06C112.51 218.02 108.34 213.92 103.34 213.92L99.73 213.92C94.73 213.92 90.60 218.02 90.60 223.06L90.60 240L97.35 240L97.35 233.98L105.72 233.98L105.72 240ZM99.73 220.62L103.34 220.62C104.68 220.62 105.72 221.71 105.72 223.06L105.72 227.14L97.35 227.14L97.35 223.06C97.35 221.71 98.43 220.62 99.73 220.62ZM135.76 239.98L135.76 227.08C135.76 222.24 130.60 221.02 127.61 224.63L125.04 227.70L122.46 224.63C119.45 221.02 114.31 222.24 114.29 227.08L114.29 239.98L120.71 239.98L120.71 230.80L123.90 234.47C124.73 235.41 125.30 235.39 126.17 234.47L129.49 230.80L129.49 239.98ZM145.97 222.79C141.20 222.79 137.26 226.73 137.26 231.57C137.26 236.34 141.20 240.30 145.97 240.30C150.81 240.30 154.77 236.34 154.77 231.57C154.77 226.73 150.81 222.79 145.97 222.79ZM145.97 233.99C144.72 233.99 143.57 232.84 143.57 231.57C143.57 230.23 144.72 229.15 145.97 229.15C147.31 229.15 148.43 230.23 148.43 231.57C148.43 232.84 147.31 233.99 145.97 233.99ZM161.78 239.98L161.78 234.42L165.99 234.42L165.99 239.98L172.07 239.98L172.07 223.00L165.99 223.00L165.99 228.76L161.78 228.76L161.78 223.00L155.76 223.00L155.76 239.98ZM182.26 222.79C177.49 222.79 173.55 226.73 173.55 231.57C173.55 236.34 177.49 240.30 182.26 240.30C187.10 240.30 191.06 236.34 191.06 231.57C191.06 226.73 187.10 222.79 182.26 222.79ZM182.26 233.99C181.01 233.99 179.86 232.84 179.86 231.57C179.86 230.23 181.01 229.15 182.26 229.15C183.60 229.15 184.72 230.23 184.72 231.57C184.72 232.84 183.60 233.99 182.26 233.99ZM199.42 229.77L200.60 229.77C202.08 229.77 202.61 230.87 202.65 231.73C202.56 232.79 201.84 233.69 200.69 233.69C199.52 233.69 198.73 232.74 198.73 231.63L198.73 221.94C198.73 219.56 201.89 219.79 201.89 221.84C201.89 223.11 200.99 223.71 200.05 223.69L199.42 223.69ZM206.18 225.99C207.51 225.11 208.06 223.27 208.06 221.84C208.06 217.44 204.49 213.83 200.05 213.83C195.64 213.83 192.05 217.44 192.05 221.84L192.05 231.73C192.05 236.50 195.92 240.37 200.69 240.37C205.44 240.37 209.31 236.50 209.31 231.73C209.31 229.43 208.18 227.08 206.18 225.99Z" fill="#ffffff" style="fill: rgb(255, 255, 255);"></path></g><g id="SvgjsG1186" rel="mainfill" name="slogan_text" xmlns:name="slogan_text" transform="translate(143.24300292730334,-153.18160247802734)" fill="#ffffff"><path d="M0.65 217.80L0.74 217.80Q0.93 217.80 1.05 218.04Q1.08 218.08 1.08 218.24Q1.49 218.08 2.21 217.94Q2.85 217.87 3.89 217.87L3.93 217.87Q4.82 217.87 5.45 218.14Q5.93 218.33 6.69 218.84Q7.02 219.07 7.61 219.68Q9.00 221.27 9.00 223.04Q9.00 225.04 7.57 226.71Q6.95 227.36 6.72 227.50Q6.30 227.81 6.03 227.93L6.03 227.93Q6.44 228.10 7.20 228.65Q7.54 228.89 8.21 229.58Q9.03 230.57 9.29 231.20Q9.87 232.44 9.87 233.59L9.87 233.84Q9.87 235.63 8.77 237.43Q8.46 237.91 7.93 238.45Q6.43 239.98 4.77 239.98L4.28 239.98Q2.28 239.98 1.08 239.41L1.08 239.50Q1.08 239.88 0.85 239.97Q0.77 240 0.74 240L0.65 240Q0.46 240 0.33 239.75Q0.31 239.69 0.31 239.66L0.31 218.14Q0.31 217.96 0.56 217.82Q0.62 217.80 0.65 217.80M1.08 219.07L1.08 227.56Q2.11 227.56 2.63 227.56L2.73 227.56Q3.41 227.56 4.55 227.56Q4.94 227.56 5.65 227.25Q7.19 226.45 7.92 224.67Q8.21 223.83 8.21 223.05Q8.21 221.46 6.88 220.05Q6.18 219.38 5.82 219.21Q5.34 218.90 4.76 218.73Q4.45 218.64 3.93 218.64L3.93 218.64Q2.18 218.64 1.41 218.95Q1.13 219.04 1.08 219.07M1.08 228.35L1.08 238.53Q2.15 239.19 4.31 239.19L4.77 239.19Q5.65 239.19 6.55 238.61Q6.86 238.42 7.40 237.89Q8.04 237.18 8.29 236.72Q9.09 235.24 9.09 233.84L9.09 233.60Q9.09 231.95 7.82 230.32Q7.30 229.70 6.86 229.36Q5.55 228.35 4.49 228.35Q3.56 228.37 2.97 228.37Q2.37 228.37 1.08 228.35ZM15.07 224.14L15.23 224.14Q16.57 224.14 17.69 225.08Q18.22 225.58 18.45 225.95Q18.90 226.63 19.18 227.45Q19.83 229.36 19.83 231.82L19.83 232.12Q19.83 232.29 19.59 232.43Q19.53 232.46 19.33 232.46L11.25 232.46Q11.25 234.35 11.74 236.11Q12.00 236.96 12.33 237.52Q13.40 239.24 15.10 239.24L15.26 239.24Q16.34 239.24 17.30 238.62Q18.26 237.99 18.73 236.64Q18.82 236.24 18.90 236.16Q19.02 236.05 19.19 236.05Q19.45 236.05 19.55 236.36Q19.55 236.39 19.56 236.44Q19.55 236.70 19.22 237.49Q19.02 237.89 18.71 238.34Q18.45 238.67 18.09 238.96Q17.33 239.63 16.31 239.86Q15.78 240 15.26 240L15.07 240Q13.74 240 12.61 239.06Q11.54 238.13 10.97 236.19Q10.49 234.42 10.49 232.32L10.49 231.82Q10.49 228.66 11.49 226.59Q11.76 226.03 12.31 225.36Q13.52 224.14 15.07 224.14M11.25 231.68L19.05 231.68Q19.05 229.79 18.57 228.03Q18.31 227.24 18.11 226.88Q17.98 226.62 17.66 226.15Q16.65 224.90 15.21 224.90L15.09 224.90Q13.55 224.90 12.53 226.32Q12.22 226.77 11.99 227.30Q11.80 227.78 11.59 228.55Q11.25 230.16 11.25 231.68ZM29.62 217.79L29.71 217.79Q29.91 217.79 30.03 218.05Q30.05 218.08 30.05 218.13L30.05 218.22Q29.99 218.58 29.57 219.12Q29.09 219.58 28.66 219.80Q28.22 220.02 27.77 220.14Q27.35 220.28 26.16 220.34Q25.51 220.45 25.14 220.58Q24.49 220.76 23.84 221.12Q23.45 221.34 22.99 221.75Q22.63 222.13 22.32 222.59Q21.90 223.19 21.67 224.00Q21.41 225.13 21.41 225.55Q21.33 226.23 21.33 226.56L21.33 226.56L21.33 226.56Q21.48 226.17 21.86 225.59Q23.17 223.74 25.22 223.74L25.25 223.74Q27.45 223.74 28.76 225.83Q30.03 227.96 30.03 231.73L30.03 232.01Q30.03 236.00 28.62 238.14Q27.79 239.38 26.41 239.83Q25.82 240 25.33 240L25.17 240Q23.39 240 22.12 238.50Q20.45 236.39 20.45 231.93L20.45 230.58Q20.45 226.69 20.69 224.77Q20.83 224.03 21.02 223.44Q21.22 222.88 21.56 222.33Q22.00 221.64 22.38 221.24Q23.25 220.44 24.27 220.05Q24.78 219.83 25.39 219.69Q26.16 219.54 26.72 219.54Q27.26 219.46 27.57 219.38Q28.73 219.03 29.15 218.36Q29.21 218.25 29.32 217.97Q29.46 217.79 29.62 217.79M21.22 231.85L21.22 231.88Q21.22 237.20 23.54 238.75Q24.32 239.23 25.19 239.23L25.28 239.23Q27.09 239.23 28.18 237.37Q29.24 235.40 29.24 231.98L29.24 231.76Q29.24 227.55 27.68 225.64Q26.67 224.51 25.26 224.51L25.25 224.51Q22.92 224.51 21.87 227.30Q21.22 229.10 21.22 231.85ZM31.37 233.18L31.37 230.38L39.93 230.38L39.93 233.18L31.37 233.18ZM41.59 224.14L41.62 224.14Q41.88 224.14 41.98 224.43L41.98 224.43Q43.03 224.14 44.87 224.14L45.51 224.14Q47.00 224.14 48.44 224.84Q49.01 225.11 49.52 225.63Q49.98 226.12 50.14 226.48Q50.53 227.27 50.53 228.09L50.53 228.31Q50.53 229.67 49.57 230.77Q48.98 231.33 48.68 231.47Q48.37 231.68 47.75 231.93Q46.59 232.36 45.49 232.36Q43.49 232.36 41.99 231.99L41.99 239.52Q41.99 239.88 41.76 239.97Q41.68 240 41.65 240L41.56 240Q41.37 240 41.25 239.75Q41.23 239.69 41.23 239.67L41.23 224.50Q41.23 224.25 41.53 224.15Q41.56 224.14 41.59 224.14M41.99 231.22Q43.43 231.60 45.49 231.60Q47.00 231.60 48.36 230.78Q49.77 229.81 49.77 228.29L49.77 228.10Q49.77 226.73 48.61 225.83Q47.97 225.38 47.15 225.15Q46.28 224.90 45.52 224.90L44.89 224.90Q43.00 224.90 41.99 225.22L41.99 231.22ZM55.67 224.14L55.98 224.14Q57.67 224.14 58.91 225.22Q60.53 226.77 60.53 229.81L60.53 238.56Q60.53 238.98 60.89 239.47Q60.92 239.55 60.92 239.58L60.92 239.67Q60.92 239.86 60.67 239.98Q60.61 240 60.59 240L60.50 240Q60.21 240 59.90 239.19Q58.47 239.98 56.24 239.98Q53.95 239.98 52.46 238.44Q51.19 237.04 51.19 234.95L51.19 234.83Q51.19 232.46 53.13 230.99Q54.69 229.90 56.54 229.90Q58.40 229.90 59.77 230.52L59.77 229.82Q59.74 226.20 57.47 225.19Q56.71 224.90 55.96 224.90L55.68 224.90Q53.45 224.90 52.28 225.92Q51.92 226.29 51.81 226.46Q51.69 226.62 51.52 226.62Q51.25 226.62 51.16 226.32Q51.15 226.31 51.15 226.28L51.15 226.18Q51.15 225.98 51.75 225.38Q52.42 224.79 53.16 224.54Q54.29 224.14 55.67 224.14M51.95 234.81L51.95 234.97Q51.95 236.89 53.18 238.08Q54.40 239.23 56.26 239.23Q58.35 239.23 59.63 238.47Q59.77 238.40 59.77 238.37L59.77 231.36Q59.01 231.00 58.26 230.83Q57.53 230.66 56.54 230.66Q54.72 230.66 53.30 231.81Q51.95 233.00 51.95 234.81ZM66.06 224.14L66.26 224.14Q67.26 224.14 68.53 224.96Q68.82 225.15 69.32 225.64L69.66 226.04Q70.38 227.07 70.38 228.18Q70.38 230.47 67.95 231.68Q67.69 231.79 67.67 231.79Q67.69 231.81 68.09 231.95Q68.90 232.24 69.64 232.91Q70.24 233.53 70.38 233.84Q70.85 234.69 70.85 235.54L70.85 235.77Q70.85 237.44 69.67 238.67Q69.19 239.12 68.80 239.32Q67.55 240 66.31 240L66.09 240Q64.98 240 63.71 239.35Q63.26 239.12 62.78 238.73Q62.25 238.22 62.11 237.99Q61.65 237.34 61.54 236.72L61.54 236.65Q61.54 236.41 61.85 236.30L61.94 236.30Q62.25 236.30 62.33 236.79Q62.76 238.00 64.14 238.73Q65.21 239.24 66.11 239.24L66.28 239.24Q67.49 239.24 68.65 238.51Q69.56 237.91 69.92 236.84Q70.07 236.30 70.07 235.74L70.07 235.59Q70.07 234.52 69.32 233.65Q68.90 233.23 68.62 233.06Q67.41 232.32 66.03 232.32L65.63 232.33Q65.43 232.33 65.30 232.08Q65.29 232.02 65.29 231.99L65.29 231.93Q65.29 231.68 65.58 231.59Q66.50 231.43 66.90 231.28Q69.63 230.37 69.63 228.18Q69.63 226.86 68.37 225.80Q67.89 225.42 67.52 225.25Q66.78 224.90 66.25 224.90L66.11 224.90Q64.76 224.90 63.44 225.75Q63.10 225.98 62.76 226.35Q62.48 226.66 62.33 226.93Q62.21 227.07 62.05 227.07Q61.77 227.07 61.68 226.76Q61.66 226.71 61.66 226.66Q61.69 226.38 62.35 225.69Q62.93 225.13 63.27 224.96Q63.72 224.68 64.20 224.50Q65.23 224.14 66.06 224.14ZM71.82 224.14L71.86 224.14Q72.12 224.14 72.21 224.43L72.21 224.43Q73.27 224.14 75.11 224.14L75.74 224.14Q77.23 224.14 78.67 224.84Q79.24 225.11 79.76 225.63Q80.22 226.12 80.37 226.48Q80.76 227.27 80.76 228.09L80.76 228.31Q80.76 229.67 79.80 230.77Q79.21 231.33 78.92 231.47Q78.61 231.68 77.99 231.93Q76.83 232.36 75.73 232.36Q73.73 232.36 72.23 231.99L72.23 239.52Q72.23 239.88 72.00 239.97Q71.92 240 71.89 240L71.79 240Q71.61 240 71.48 239.75Q71.47 239.69 71.47 239.67L71.47 224.50Q71.47 224.25 71.76 224.15Q71.79 224.14 71.82 224.14M72.23 231.22Q73.67 231.60 75.73 231.60Q77.23 231.60 78.59 230.78Q80.00 229.81 80.00 228.29L80.00 228.10Q80.00 226.73 78.84 225.83Q78.21 225.38 77.39 225.15Q76.52 224.90 75.76 224.90L75.12 224.90Q73.23 224.90 72.23 225.22L72.23 231.22ZM85.90 224.14L86.21 224.14Q87.90 224.14 89.14 225.22Q90.77 226.77 90.77 229.81L90.77 238.56Q90.77 238.98 91.12 239.47Q91.16 239.55 91.16 239.58L91.16 239.67Q91.16 239.86 90.91 239.98Q90.85 240 90.83 240L90.74 240Q90.44 240 90.13 239.19Q88.71 239.98 86.48 239.98Q84.19 239.98 82.70 238.44Q81.43 237.04 81.43 234.95L81.43 234.83Q81.43 232.46 83.36 230.99Q84.93 229.90 86.77 229.90Q88.63 229.90 90.01 230.52L90.01 229.82Q89.98 226.20 87.70 225.19Q86.94 224.90 86.20 224.90L85.92 224.90Q83.69 224.90 82.51 225.92Q82.16 226.29 82.05 226.46Q81.92 226.62 81.75 226.62Q81.49 226.62 81.40 226.32Q81.38 226.31 81.38 226.28L81.38 226.18Q81.38 225.98 81.99 225.38Q82.65 224.79 83.40 224.54Q84.53 224.14 85.90 224.14M82.19 234.81L82.19 234.97Q82.19 236.89 83.41 238.08Q84.63 239.23 86.49 239.23Q88.58 239.23 89.87 238.47Q90.01 238.40 90.01 238.37L90.01 231.36Q89.25 231.00 88.49 230.83Q87.76 230.66 86.77 230.66Q84.96 230.66 83.53 231.81Q82.19 233.00 82.19 234.81ZM100.94 217.79L101.04 217.79Q101.24 217.79 101.36 218.05Q101.38 218.08 101.38 218.13L101.38 218.22Q101.32 218.58 100.90 219.12Q100.42 219.58 99.98 219.80Q99.55 220.02 99.10 220.14Q98.68 220.28 97.49 220.34Q96.84 220.45 96.47 220.58Q95.82 220.76 95.17 221.12Q94.78 221.34 94.32 221.75Q93.96 222.13 93.65 222.59Q93.23 223.19 93.00 224.00Q92.74 225.13 92.74 225.55Q92.66 226.23 92.66 226.56L92.66 226.56L92.66 226.56Q92.81 226.17 93.18 225.59Q94.50 223.74 96.55 223.74L96.58 223.74Q98.78 223.74 100.09 225.83Q101.36 227.96 101.36 231.73L101.36 232.01Q101.36 236.00 99.95 238.14Q99.12 239.38 97.74 239.83Q97.15 240 96.65 240L96.50 240Q94.72 240 93.45 238.50Q91.78 236.39 91.78 231.93L91.78 230.58Q91.78 226.69 92.02 224.77Q92.16 224.03 92.35 223.44Q92.55 222.88 92.89 222.33Q93.32 221.64 93.71 221.24Q94.58 220.44 95.60 220.05Q96.11 219.83 96.72 219.69Q97.49 219.54 98.05 219.54Q98.59 219.46 98.90 219.38Q100.06 219.03 100.48 218.36Q100.54 218.25 100.65 217.97Q100.79 217.79 100.94 217.79M92.55 231.85L92.55 231.88Q92.55 237.20 94.87 238.75Q95.65 239.23 96.51 239.23L96.61 239.23Q98.42 239.23 99.50 237.37Q100.57 235.40 100.57 231.98L100.57 231.76Q100.57 227.55 99.01 225.64Q98.00 224.51 96.59 224.51L96.58 224.51Q94.25 224.51 93.20 227.30Q92.55 229.10 92.55 231.85ZM106.58 224.14L106.74 224.14Q108.09 224.14 109.20 225.08Q109.73 225.58 109.96 225.95Q110.41 226.63 110.69 227.45Q111.34 229.36 111.34 231.82L111.34 232.32Q111.34 235.48 110.33 237.55Q110.07 238.11 109.50 238.78Q108.29 240 106.74 240L106.58 240Q105.24 240 104.12 239.06Q102.99 238.08 102.42 235.96Q102.00 234.25 102.00 232.32L102.00 231.82Q102.00 228.48 103.11 226.37Q103.36 225.92 103.83 225.38Q105.03 224.14 106.58 224.14M102.76 231.84L102.76 232.30Q102.76 235.65 103.89 237.58Q104.09 237.92 104.48 238.34Q105.41 239.24 106.60 239.24L106.72 239.24Q108.13 239.24 109.12 238.03Q109.45 237.61 109.63 237.26Q110.56 235.32 110.56 232.30L110.56 231.84Q110.56 228.49 109.45 226.56Q109.26 226.23 108.86 225.80Q107.92 224.90 106.72 224.90L106.60 224.90Q105.20 224.90 104.20 226.11Q103.89 226.52 103.70 226.88Q102.76 228.82 102.76 231.84ZM112.28 224.14L120.91 224.14Q121.10 224.14 121.22 224.39Q121.24 224.45 121.24 224.46L121.24 224.56Q121.24 224.77 120.94 224.90Q120.82 224.90 120.76 224.90L117.05 224.90L117.05 239.61Q117.05 239.92 116.71 240L116.65 240Q116.39 240 116.29 239.71Q116.29 239.66 116.29 239.61L116.29 224.90L112.44 224.90Q112.08 224.90 111.99 224.67Q111.96 224.59 111.96 224.56L111.96 224.46Q111.96 224.28 112.22 224.15Q112.25 224.14 112.28 224.14ZM122.18 224.14L122.27 224.14Q122.48 224.14 122.60 224.42Q122.61 224.50 122.61 224.60L122.61 231.16Q122.61 231.64 123.40 231.81Q123.53 231.82 123.67 231.82L130.37 231.82L130.37 224.60Q130.37 224.28 130.59 224.17Q130.67 224.14 130.72 224.14L130.81 224.14Q130.99 224.14 131.12 224.39Q131.13 224.45 131.13 224.46L131.13 239.67Q131.13 239.86 130.89 239.98Q130.84 240 130.81 240L130.72 240Q130.51 240 130.39 239.72Q130.37 239.64 130.37 239.54L130.37 232.58L123.67 232.58Q122.65 232.58 122.09 231.88Q121.86 231.54 121.86 231.17L121.86 224.46Q121.86 224.28 122.12 224.15Q122.15 224.14 122.18 224.14ZM140.69 224.14L140.78 224.14Q140.97 224.14 141.09 224.39Q141.12 224.45 141.12 224.46L141.12 239.67Q141.12 239.86 140.88 239.98Q140.81 240 140.78 240L140.69 240Q140.49 240 140.38 239.72Q140.35 239.64 140.35 239.54L140.35 225.97L140.35 225.97Q140.13 226.35 137.08 231.71Q132.56 239.63 132.42 239.88Q132.28 240 132.17 240L132.08 240Q131.89 240 131.77 239.75Q131.75 239.69 131.75 239.67L131.75 224.51Q131.75 224.28 132.03 224.17Q132.09 224.15 132.14 224.15Q132.39 224.15 132.51 224.46Q132.51 224.57 132.51 224.63L132.51 238.17L132.53 238.17Q132.70 237.85 135.72 232.55Q136.18 231.74 140.43 224.29Q140.57 224.14 140.69 224.14ZM150.67 224.14L150.77 224.14Q150.96 224.14 151.08 224.39Q151.10 224.45 151.10 224.46L151.10 224.56Q151.10 224.73 150.82 224.93Q143.32 231.00 143.32 231.02Q143.73 231.45 148.16 236.27Q150.93 239.27 151.04 239.43Q151.10 239.52 151.10 239.58L151.10 239.67Q151.10 239.86 150.85 239.98Q150.79 240 150.77 240L150.67 240Q150.51 240 150.23 239.66Q150.05 239.46 146.48 235.57L142.74 231.50Q142.52 231.67 142.50 231.67L142.50 239.52Q142.50 239.88 142.27 239.97Q142.19 240 142.16 240L142.07 240Q141.88 240 141.76 239.75Q141.74 239.69 141.74 239.67L141.74 224.51Q141.74 224.26 142.04 224.17L142.13 224.15Q142.38 224.15 142.49 224.43Q142.50 224.53 142.50 224.65L142.50 230.69Q149.33 225.16 149.78 224.79Q150.46 224.23 150.57 224.17Q150.65 224.14 150.67 224.14Z" fill="#ffffff" style="fill: rgb(255, 255, 255);"></path></g><g id="SvgjsG1187" rel="mainfill" name="symbol" xmlns:name="symbol_mainfill" transform="translate(-13.251000213623032,-5.556600141525268) scale(1.4)" fill="#ffffff"><polygon points="38.182,57.753 20.18,47.91 20.18,42.455 38.182,32.652 38.182,39.074 25.625,45.113 38.182,51.379 "></polygon><polygon points="39.848,62.08 46.351,27.918 50.136,27.918 43.56,62.08 "></polygon><polygon points="51.8,57.78 51.8,51.4 64.372,45.181 51.8,39.028 51.8,32.696 69.82,42.5 69.82,47.91 "></polygon><path d="M44.999,86.031L9.465,65.517V24.484L44.999,3.969l35.536,20.516v41.029L44.999,86.031L44.999,86.031z M13.07,63.434  l31.929,18.434L76.93,63.434V26.566L44.999,8.131L13.07,26.565V63.434L13.07,63.434z" fill="#ffffff" style="fill: rgb(255, 255, 255);"></path></g></svg>